<?xml version="1.0" standalone="no"?>
<!DOCTYPE svg PUBLIC "-//W3C//DTD SVG 20010904//EN"
 "http://www.w3.org/TR/2001/REC-SVG-20010904/DTD/svg10.dtd">
<svg version="1.0" xmlns="http://www.w3.org/2000/svg"
 width="260.000000pt" height="260.000000pt" viewBox="0 0 260.000000 260.000000"
 preserveAspectRatio="xMidYMid meet">
<metadata>
Created by potrace 1.11, written by Peter Selinger 2001-2013
</metadata>
<g transform="translate(0.000000,260.000000) scale(0.100000,-0.100000)"
fill="#000000" stroke="none">
<path d="M1070 2590 c-19 -4 -49 -10 -66 -14 -125 -25 -301 -102 -436 -192
-271 -180 -466 -464 -543 -787 -30 -129 -35 -412 -10 -547 85 -446 421 -838
846 -983 170 -59 226 -67 459 -64 196 3 224 5 312 29 53 15 112 33 130 41 138
61 185 86 270 143 252 167 444 434 531 737 31 110 32 115 32 327 0 234 -3 268
-40 394 -74 257 -257 516 -478 680 -68 50 -213 131 -292 163 -48 19 -116 43
-139 48 -154 32 -189 35 -359 34 -100 -1 -198 -5 -217 -9z"/>
</g>
</svg>
